<?xml version="1.0" encoding="UTF-8" standalone="no"?>
<svg
   xmlns:osb="http://www.openswatchbook.org/uri/2009/osb"
   xmlns:dc="http://purl.org/dc/elements/1.1/"
   xmlns:cc="http://creativecommons.org/ns#"
   xmlns:rdf="http://www.w3.org/1999/02/22-rdf-syntax-ns#"
   xmlns:svg="http://www.w3.org/2000/svg"
   xmlns="http://www.w3.org/2000/svg"
   xmlns:sodipodi="http://sodipodi.sourceforge.net/DTD/sodipodi-0.dtd"
   xmlns:inkscape="http://www.inkscape.org/namespaces/inkscape"
   width="32.0px"
   height="32.0px"
   viewBox="0 0 32.0 32.0"
   version="1.1"
   id="SVGRoot"
   sodipodi:docname="drawing.svg"
   inkscape:version="1.0.2-2 (e86c870879, 2021-01-15)">
  <defs
     id="defs10">
    <linearGradient
       inkscape:collect="always"
       id="linearGradient1506"
       osb:paint="gradient">
      <stop
         style="stop-color:#000000;stop-opacity:1;"
         offset="0"
         id="stop1502" />
      <stop
         style="stop-color:#000000;stop-opacity:0;"
         offset="1"
         id="stop1504" />
    </linearGradient>
    <inkscape:perspective
       sodipodi:type="inkscape:persp3d"
       inkscape:vp_x="0 : 16 : 1"
       inkscape:vp_y="0 : 1000 : 0"
       inkscape:vp_z="32 : 16 : 1"
       inkscape:persp3d-origin="16 : 10.666667 : 1"
       id="perspective418" />
  </defs>
  <sodipodi:namedview
     id="base"
     pagecolor="#ffffff"
     bordercolor="#666666"
     borderopacity="1.0"
     inkscape:pageopacity="0.0"
     inkscape:pageshadow="2"
     inkscape:zoom="64"
     inkscape:cx="11.839962"
     inkscape:cy="23.089865"
     inkscape:document-units="px"
     inkscape:current-layer="layer1"
     inkscape:document-rotation="0"
     showgrid="true"
     inkscape:window-width="1920"
     inkscape:window-height="1057"
     inkscape:window-x="1912"
     inkscape:window-y="-8"
     inkscape:window-maximized="1">
    <inkscape:grid
       type="xygrid"
       id="grid19" />
  </sodipodi:namedview>
  <metadata
     id="metadata13">
    <rdf:RDF>
      <cc:Work
         rdf:about="">
        <dc:format>image/svg+xml</dc:format>
        <dc:type
           rdf:resource="http://purl.org/dc/dcmitype/StillImage" />
        <dc:title></dc:title>
      </cc:Work>
    </rdf:RDF>
  </metadata>
  <g
     inkscape:label="Layer 1"
     inkscape:groupmode="layer"
     id="layer1">
    <path
       style="stroke-width:0.2;stroke-linejoin:round;stroke-miterlimit:4;stroke-dasharray:none;fill:#999999"
       id="path1327"
       d="m 2.1186442,30.116339 c 0.3353132,0.22398 0.7192967,0.36487 1.1002917,0.489582 0.3845136,0.107124 0.7850329,0.139202 1.1825208,0.105992 0.077189,-0.0064 0.1536197,-0.01999 0.2304296,-0.02999 0.073046,-0.01554 0.1462743,-0.03025 0.2191379,-0.04663 0.2124424,-0.04775 0.2191287,-0.04991 0.4247038,-0.11343 0.1573294,-0.04861 0.2211799,-0.07479 0.3790876,-0.114039 0.056738,-0.0141 0.1143456,-0.02445 0.1715184,-0.03667 0.1811382,-0.03422 0.3594249,-0.04082 0.5320326,0.03142 0.096733,0.04048 0.1526742,0.08208 0.2407066,0.138718 0.2094893,0.152632 0.4193059,0.307523 0.6490134,0.429185 0.1407703,0.07456 0.2746836,0.127426 0.4210204,0.189236 0.3551206,0.138886 0.7151242,0.274085 1.0873274,0.360815 0.074375,0.01733 0.1498025,0.02978 0.2247038,0.04467 0.3801892,0.06071 0.7208087,0.0206 1.0891128,-0.07186 0.295636,-0.09634 0.550357,-0.276263 0.801383,-0.454197 0.491859,-0.348643 -0.0432,0.02446 0.499689,-0.351975 0.102178,-0.06687 0.202981,-0.135898 0.306535,-0.20062 0.197287,-0.123305 0.520368,-0.310536 0.722736,-0.419062 0.274914,-0.147431 0.497178,-0.259502 0.790283,-0.367687 0.130522,-0.04818 0.265245,-0.0841 0.397867,-0.126148 0.451852,-0.120577 0.916305,-0.137026 1.378154,-0.07431 0.217878,0.02958 0.41172,0.07873 0.625574,0.127481 0.39251,0.09578 0.789683,0.189241 1.195041,0.208224 0.375021,0.01756 0.435117,8.57e-4 0.805019,-0.02944 0.829965,-0.108127 1.613843,-0.420109 2.334267,-0.839339 0.148832,-0.08661 0.291801,-0.182921 0.437701,-0.274381 0.401461,-0.255227 0.785957,-0.535628 1.180484,-0.801122 0.218478,-0.147022 0.47023,-0.313991 0.703181,-0.439567 0.108396,-0.05843 0.221617,-0.107433 0.332426,-0.161149 0.302877,-0.10403 0.36522,-0.139078 0.680452,-0.193609 0.470897,-0.08146 0.984748,-0.06207 1.461894,-0.06172 0.652983,0.002 1.298542,-0.105277 1.941163,-0.20831 0.65128,-0.10442 0.497863,-0.07998 1.144281,-0.196206 0.42003,-0.08746 0.85015,-0.15277 1.254831,-0.301693 0.05763,-0.02121 0.114579,-0.04589 0.166837,-0.07815 0.01949,-0.01203 0.04342,-0.02944 0.04453,-0.05232 7.68e-4,-0.01591 -0.0272,-0.01657 -0.04081,-0.02486 -0.0013,-3.54e-4 -0.0063,0.01856 -0.005,0.01891 v 0 c 0.0094,-0.0081 0.03778,-0.01626 0.02828,-0.02424 -0.01871,-0.01573 -0.04779,-0.0121 -0.07222,-0.01269 -0.06523,-0.0016 -0.13056,0.0016 -0.195641,0.0063 -0.438535,0.03137 -0.874754,0.09559 -1.308163,0.167206 -0.716819,0.126916 -0.423097,0.07096 -1.137155,0.213185 -0.620909,0.123669 -1.242997,0.261423 -1.878565,0.279248 -0.496015,0.01485 -1.000293,0.0039 -1.490931,0.09072 -0.331109,0.0586 -0.398786,0.09518 -0.717826,0.20336 -0.118039,0.05271 -0.238416,0.100467 -0.354119,0.158125 -0.260772,0.12995 -0.486153,0.272417 -0.731984,0.428815 -0.399909,0.254421 -0.79117,0.522374 -1.194893,0.770867 -0.144559,0.08603 -0.28723,0.17532 -0.433678,0.258097 -0.701007,0.396232 -1.423108,0.72782 -2.221825,0.867095 -0.220833,0.0269 -0.453473,0.06265 -0.677514,0.06487 -0.400905,0.004 -0.790091,-0.08411 -1.171826,-0.199272 -0.228175,-0.0564 -0.40624,-0.104844 -0.63885,-0.144156 -0.519308,-0.08777 -1.0478,-0.08536 -1.560745,0.0418 -0.139979,0.04327 -0.282547,0.07891 -0.419936,0.129805 -0.660354,0.244631 -1.253609,0.643438 -1.810617,1.066687 -0.335367,0.270852 -0.666055,0.564128 -1.045766,0.773169 -0.05405,0.02976 -0.111179,0.05356 -0.166769,0.08035 -0.050571,0.0151 -0.1002143,0.03375 -0.1517133,0.0453 -0.093327,0.02092 -0.2042713,0.02647 -0.2990524,0.02941 -0.1823822,0.0057 -0.3646936,-0.0072 -0.5446317,-0.03785 -0.072641,-0.01418 -0.1457892,-0.02597 -0.2179238,-0.04254 -0.3678057,-0.08446 -0.7222825,-0.21877 -1.074402,-0.352055 -0.376398,-0.163497 -0.7486985,-0.33825 -1.0864765,-0.57402 -0.096617,-0.06051 -0.1512592,-0.100308 -0.2567274,-0.144389 -0.1955994,-0.08175 -0.4042022,-0.08288 -0.6115103,-0.05712 -0.060136,0.01064 -0.1207091,0.01906 -0.1804088,0.03193 -0.3418717,0.07369 -0.6702857,0.206489 -1.0189979,0.251141 -0.1747088,0.02361 -0.2393153,0.03751 -0.409884,0.04228 C 3.8749611,30.611916 3.57917,30.563706 3.2903155,30.478823 2.9027839,30.357552 2.5225549,30.21554 2.1350938,30.094307 c -0.00156,-0.0012 -0.017997,0.02088 -0.016439,0.02204 z" />
    <path
       style="fill:#999999;stroke-width:0.00883884;stroke-linejoin:round;stroke-miterlimit:4;stroke-dasharray:none;stroke:none"
       d="m 2.1258619,29.828894 c 0,-0.03086 0.4375814,-2.024572 0.9724032,-4.430466 l 0.972403,-4.374354 9.4574109,-9.457529 9.45741,-9.4575289 3.447159,3.4471584 3.447159,3.4471583 -9.468604,9.4669342 -9.468603,9.466934 -4.3862244,0.973903 c -2.4124232,0.535646 -4.3961892,0.973902 -4.4083688,0.973902 -0.01218,0 -0.022145,-0.02525 -0.022145,-0.05611 z"
       id="path1359" />
    <path
       style="mix-blend-mode:lighten;fill:none;stroke:#ffffff;stroke-opacity:1"
       d="m 4,21 7,7"
       id="path1486" />
  </g>
</svg>
